<?xml version="1.0" encoding="utf-8"?>
<!-- Generator: Adobe Illustrator 16.0.0, SVG Export Plug-In . SVG Version: 6.00 Build 0)  -->
<!DOCTYPE svg PUBLIC "-//W3C//DTD SVG 1.1//EN" "http://www.w3.org/Graphics/SVG/1.1/DTD/svg11.dtd">
<svg version="1.1" id="图层_1" xmlns="http://www.w3.org/2000/svg" xmlns:xlink="http://www.w3.org/1999/xlink" x="0px" y="0px"
	 width="119.391px" height="160px" viewBox="0 0 119.391 160" enable-background="new 0 0 119.391 160" xml:space="preserve">
<path fill="#08A1EF" d="M105.312,92.453V0H71.878L18.951,66.87h-0.135v0.135L0.135,90.829L0,90.965v31.133l70.389-0.947L69.982,160
	h36.277v-38.85h13.131V92.453H105.312z M118.172,93.131l-16.243,16.514c-0.136,0-0.271,0-0.271-0.135l3.654-16.379H118.172z
	 M66.599,105.448c-0.271,0-0.677,0.136-0.812,0.271L50.896,92.183l20.17,0.271l-4.062,12.995
	C66.734,105.448,66.599,105.448,66.599,105.448z M16.514,97.598l12.454-5.686l6.498,13.131c-0.135,0.135-0.271,0.27-0.406,0.405
	l-18.545-7.175v-0.135C16.649,98.004,16.649,97.732,16.514,97.598z M37.496,105.178c-0.271-0.271-0.542-0.406-0.948-0.406
	c-0.135,0-0.135,0-0.271,0L29.78,91.912l20.305,0.271L37.496,105.178z M20.575,69.036l15.973,12.859l-7.174,8.935L20.575,69.036z
	 M37.902,105.719l12.589-12.859l3.52,26.938l-16.108-12.859c0.135-0.135,0.135-0.406,0.135-0.677
	C38.037,106.125,37.902,105.854,37.902,105.719z M29.915,91.235l21.658-27.073l0.677-0.812l18.138-22.741l0.678,51.168
	L29.915,91.235z M53.875,45.347c0-0.135,0-0.271-0.135-0.406l16.379-5.009l-17.732,22.2l0.271-15.296
	C53.333,46.701,53.875,46.159,53.875,45.347z M51.709,46.701h0.135l-0.271,16.244l-0.271,0.406l-12.724-1.083
	c0-0.136-0.135-0.136-0.135-0.271L51.709,46.701z M37.36,64.433c0.677-0.135,1.354-0.677,1.354-1.354l12.047,0.947L36.954,81.354
	L37.36,64.433z M70.524,38.714L55.499,22.606l19.492-5.009c0.136,0.135,0.271,0.271,0.406,0.406L70.524,38.714z M94.619,25.854
	l9.476,7.716l-12.86,12.724c-0.135-0.135-0.405-0.271-0.541-0.406l2.979-19.492C93.942,26.396,94.349,26.125,94.619,25.854z
	 M87.445,102.605c-0.136-0.135-0.271-0.271-0.542-0.271l4.737-17.056l0,0c0.406,0,0.678-0.135,0.948-0.406l11.642,7.986
	L87.445,102.605z M92.859,26.261l-2.979,19.492c-0.405,0-0.812,0.271-1.082,0.677l-17.463-7.039l20.847-13.671
	C92.453,25.99,92.589,26.125,92.859,26.261z M91.641,82.166c-0.135,0-0.135,0-0.27,0l-5.01-12.454
	c0.406-0.271,0.678-0.677,0.678-1.218l0,0l16.785-6.768l-11.777,20.44C92.047,82.301,91.912,82.166,91.641,82.166z M86.903,67.953
	c-0.136-0.271-0.405-0.542-0.812-0.677l3.925-18.545l0,0c0.406,0,0.812-0.135,1.083-0.406l12.859,12.724L86.903,67.953z
	 M88.663,47.783c0.136,0.271,0.406,0.542,0.677,0.812l-3.926,18.545c-0.271,0-0.406,0.135-0.676,0.271L72.014,56.853L88.663,47.783z
	 M85.008,69.983c0.136,0.136,0.406,0.136,0.678,0.136c0.135,0,0.135,0,0.271,0l5.009,12.454c-0.406,0.271-0.678,0.676-0.678,1.218
	c0,0.136,0,0.271,0,0.271l-18.003,7.445L85.008,69.983z M93.131,84.332c0.135-0.136,0.135-0.406,0.135-0.542
	c0-0.405-0.135-0.812-0.406-1.083l11.912-20.846v30.321L93.131,84.332z M91.506,47.783c0-0.135,0.135-0.271,0.135-0.541
	c0-0.136,0-0.271-0.135-0.406l13.131-12.995v26.802L91.506,47.783z M92.047,25.042L71.336,38.579l4.738-20.305h0.135
	c0.542,0,1.084-0.406,1.354-0.812l14.483,7.174c0,0.135,0,0.135,0,0.271C91.912,24.907,92.047,25.042,92.047,25.042z M88.663,47.106
	L88.663,47.106l-17.327,9.34l-0.27-16.515L88.663,47.106z M84.332,67.817c-0.136,0.271-0.271,0.542-0.271,0.812
	c0,0.135,0,0.271,0.136,0.406l-12.724,4.602l-0.271-16.379L84.332,67.817z M71.473,74.179l12.859-4.602l-12.59,21.388L71.473,74.179
	L71.473,74.179z M90.559,84.603c0.135,0.136,0.271,0.271,0.541,0.405l-4.602,17.057c-0.406,0-0.678,0.135-0.948,0.406L72.148,92.183
	L90.559,84.603z M85.686,104.906c0.135,0.137,0.271,0.137,0.406,0.137l0.406,24.5c-0.271,0.136-0.542,0.271-0.678,0.406
	l-14.484-9.34L85.686,104.906z M85.414,130.626c0,0.136-0.135,0.271-0.135,0.406s0,0.136,0,0.271l-14.619,9.882l0.271-19.898
	L85.414,130.626z M85.686,131.979c0.271,0.271,0.541,0.542,0.947,0.542l2.301,25.719l-17.461-16.514L85.686,131.979z M87.58,129.679
	c-0.135,0-0.271-0.136-0.406-0.136l-0.541-24.365c0.406,0,0.677-0.135,0.947-0.406l12.184,6.227c0,0,0,0,0,0.136
	c0,0.271,0.135,0.542,0.27,0.812L87.58,129.679z M100.033,110.186l-12.182-6.091c0-0.136,0.135-0.271,0.135-0.406
	s0-0.405-0.135-0.541l16.649-9.611l-3.52,15.974C100.575,109.645,100.169,109.916,100.033,110.186z M104.637,33.164l-9.746-7.986
	c0-0.135,0-0.135,0-0.271c0-0.542-0.271-0.947-0.678-1.218L104.637,1.76V33.164z M93.672,23.418h-0.136
	c-0.542,0-0.947,0.271-1.218,0.542l-14.619-7.174l0,0V16.65l26.396-15.432L93.672,23.418z M103.824,0.677L77.428,16.108
	c-0.271-0.406-0.677-0.677-1.082-0.677L72.555,0.677H103.824z M72.014,0.948l3.654,14.348c-0.541,0.271-0.947,0.812-0.947,1.354
	v0.135l-19.357,5.008L72.014,0.948z M70.118,39.255l-16.649,5.144c-0.136-0.271-0.406-0.406-0.677-0.406l2.166-20.981L70.118,39.255
	z M54.281,23.418l-2.166,20.575c-0.542,0.135-0.947,0.406-1.083,0.948l-13.13-0.948L54.281,23.418z M50.896,45.482
	c0,0.271,0.136,0.541,0.271,0.812L37.902,61.59c-0.135-0.135-0.271-0.135-0.542-0.135l0.542-16.785L50.896,45.482z M37.225,44.941
	L36.819,61.59c-0.542,0.136-0.948,0.677-1.083,1.218l-15.702,3.926L37.225,44.941z M35.871,63.35
	c0.136,0.406,0.406,0.812,0.948,0.948l-0.406,16.515L19.763,67.411L35.871,63.35z M19.357,67.953l9.34,23.418l-12.724,5.685
	c-0.135-0.136-0.271-0.271-0.542-0.271L19.357,67.953z M18.68,68.359L14.89,96.785c-0.406,0-0.677,0.271-0.947,0.406l-13.13-6.362
	L18.68,68.359z M0.677,91.506l13.13,6.227c0,0.136-0.136,0.271-0.136,0.406c0,0.406,0.136,0.677,0.406,0.947L0.677,120.744V91.506z
	 M1.083,121.422l13.401-21.794c0.135,0,0.271,0.136,0.542,0.136l3.925,21.387L1.083,121.422z M15.702,99.628
	c0.271-0.136,0.542-0.271,0.677-0.542l18.545,7.175v0.136c0,0.27,0.135,0.676,0.271,0.812l-15.702,13.13L15.702,99.628z
	 M19.627,121.15l16.244-13.536c0.271,0.136,0.406,0.136,0.677,0.136c0.406,0,0.677-0.136,0.948-0.271l16.515,13.131L19.627,121.15z
	 M51.167,93.4l14.078,12.725c-0.136,0.271-0.271,0.541-0.271,0.812c0,0.406,0.135,0.677,0.406,0.947l-10.83,11.912L51.167,93.4z
	 M54.687,120.744l11.371-12.318c0.136,0.136,0.405,0.136,0.541,0.136h0.136l3.52,12.048L54.687,120.744z M67.411,108.156
	c0.406-0.271,0.677-0.678,0.677-1.219s-0.271-0.947-0.677-1.219l4.196-12.994l13.4,10.423c0,0.136-0.135,0.405-0.135,0.541
	c0,0.271,0.135,0.542,0.271,0.812l-14.213,15.702L67.411,108.156z M70.66,159.323l0.135-17.327l18.274,17.327H70.66z M87.31,132.521
	c0.271-0.136,0.542-0.271,0.677-0.406l17.056,12.994l-15.431,13.266L87.31,132.521z M105.584,159.323H89.611l15.973-13.942V159.323z
	 M105.584,144.568l-17.327-13.13c0-0.136,0.136-0.271,0.136-0.406c0-0.271-0.136-0.677-0.271-0.948l12.454-17.867
	c0.271,0.135,0.406,0.271,0.677,0.271l4.332,8.393V144.568z M106.125,120.474l-4.196-8.122c0.136,0,0.136-0.135,0.271-0.135
	l15.432,8.257H106.125z M118.714,120.203l-15.973-8.664c0.136-0.135,0.136-0.405,0.136-0.676c0-0.406-0.136-0.678-0.406-0.947
	l16.243-16.38V120.203z"/>
</svg>
