<?xml version="1.0" encoding="utf-8"?>
<!-- Generator: Adobe Illustrator 16.0.0, SVG Export Plug-In . SVG Version: 6.00 Build 0)  -->
<!DOCTYPE svg PUBLIC "-//W3C//DTD SVG 1.1//EN" "http://www.w3.org/Graphics/SVG/1.1/DTD/svg11.dtd">
<svg version="1.1" id="图层_1" xmlns="http://www.w3.org/2000/svg" xmlns:xlink="http://www.w3.org/1999/xlink" x="0px" y="0px"
	 width="116.029px" height="159.807px" viewBox="0 0 116.029 159.807" enable-background="new 0 0 116.029 159.807"
	 xml:space="preserve">
<path fill="#08A1EF" d="M116.029,112.154l-1.55-24.213l-9.104-19.176L84.843,53.656l-18.596-4.455l3.1-17.821h44.939V0H36.804
	L20.339,83.293l17.434-9.492l17.821-0.775l15.109,8.523l0,0h0.193l9.492,16.465l-3.681,19.177l-13.946,10.46l-20.146-2.905v-0.388
	v0.388L30.993,109.25L0,115.061l11.816,22.857l12.785,13.559l20.727,8.33l0,0l24.406-0.582l22.082-8.91l15.885-15.883l0.58-0.194
	l-0.193-0.388L116.029,112.154L116.029,112.154z M115.061,111.381L95.497,90.46c0,0,0-0.193,0.193-0.193l18.014-1.743
	L115.061,111.381z M97.821,115.447c-0.193-0.387-0.582-0.58-0.969-0.58l-1.938-23.633l18.596,19.952L97.821,115.447z M73.995,66.053
	c0.193-0.194,0.193-0.194,0.193-0.387l29.25,4.067l-8.91,18.596c-0.193,0-0.193,0-0.388,0s-0.388,0-0.581,0.194L73.995,66.053z
	 M113.317,87.555L95.69,89.104c0-0.193-0.193-0.387-0.193-0.387l9.297-19.371L113.317,87.555z M84.456,54.431l19.369,14.334
	l-29.442-4.068c-0.194-0.387-0.388-0.775-0.969-0.968l-6.78-13.56L84.456,54.431z M72.446,63.729c-0.194,0-0.194,0.193-0.389,0.193
	l-16.852-5.617l0,0c0-0.194,0-0.194,0-0.388l10.654-7.748L72.446,63.729z M46.876,32.349c0,0.194,0.194,0.388,0.388,0.581
	l-7.749,17.434h-0.193h-0.194L32.93,31.768L46.876,32.349z M61.211,16.659L49.007,30.605c-0.194,0-0.387-0.194-0.581-0.194l0,0
	L39.128,2.906L60.823,15.69l0,0C60.823,16.078,61.017,16.465,61.211,16.659z M39.322,53.269L39.322,53.269
	c0.387,0,0.775,0,0.968-0.193l11.816,5.23l0,0c0,0.194,0,0.387,0.194,0.387L24.213,78.838L39.322,53.269L39.322,53.269z
	 M52.3,57.336L40.678,52.3c0-0.194,0.193-0.387,0.193-0.581c0-0.388-0.193-0.775-0.387-1.162l7.555-17.24l4.649,23.438
	C52.688,57.143,52.494,57.143,52.3,57.336z M65.472,49.395l-11.041,7.942c-0.194-0.193-0.387-0.193-0.775-0.193l-4.649-23.632
	c0.388-0.193,0.581-0.387,0.775-0.774l18.789-0.969L65.472,49.395z M68.959,30.412h-0.194l0,0L49.782,31.38c0,0,0-0.194-0.194-0.194
	L61.985,17.24c0.193,0,0.388,0,0.388,0c0.581,0,1.162-0.387,1.356-0.969l25.568-0.968L68.959,30.412z M70.702,30.412l19.951-14.528
	c0.194,0.194,0.582,0.387,0.969,0.387c0.193,0,0.193,0,0.388,0l20.532,14.141H70.702z M113.511,29.831L92.784,15.497l0.194-0.194
	l20.726,0.775v13.753H113.511z M113.511,15.109l-19.758-0.775l19.951-12.978v13.753H113.511z M112.349,0.969L92.784,13.753
	c-0.193-0.387-0.774-0.581-1.162-0.581l0,0l-8.91-12.203H112.349z M90.653,13.56c-0.193,0.193-0.387,0.581-0.58,0.968l-26.15,0.969
	l18.208-13.56L90.653,13.56z M81.743,0.969L63.341,14.722c-0.193-0.194-0.58-0.388-0.968-0.388s-0.774,0.194-1.162,0.581
	L37.772,0.969H81.743z M37.579,1.55l9.686,29.249c-0.194,0.194-0.388,0.388-0.388,0.775l-14.915-0.775L37.579,1.55z M31.768,31.574
	l6.586,19.371c-0.193,0.194-0.387,0.581-0.387,0.969c0,0.387,0.194,0.774,0.387,1.162L22.083,80.581L31.768,31.574z M37.966,72.833
	l-15.109,8.136l29.831-21.308c0.193,0.193,0.387,0.193,0.581,0.193l2.518,12.204L37.966,72.833z M54.237,59.661
	c0.194,0,0.388-0.194,0.388-0.388l16.658,5.618c0,0.194,0,0.194,0,0.387v0.194l-14.915,5.811L54.237,59.661z M71.283,80.581
	l-14.528-8.136l15.302-6.005c0.194,0.194,0.194,0.194,0.389,0.194L71.283,80.581z M73.221,66.634L73.221,66.634l19.37,22.083
	l-20.533-7.748L73.221,66.634z M72.833,82.131l19.951,7.555c0,0.193,0,0.387,0.194,0.581l-11.235,7.167L72.833,82.131z
	 M81.743,98.402l11.623-7.361c0.193,0,0.387,0.193,0.58,0.193l1.938,23.826c-0.387,0.193-0.581,0.581-0.775,0.969l-17.045,1.162
	L81.743,98.402z M77.676,118.16l17.433-1.356l-23.051,22.857c-0.193,0-0.387-0.194-0.58-0.194h-0.194l-7.36-11.234L77.676,118.16z
	 M42.809,125.715l20.339,2.905l7.361,11.429c-0.193,0.193-0.193,0.387-0.388,0.58l-30.412,2.713c0-0.388-0.194-0.582-0.387-0.775
	L42.809,125.715z M38.16,142.18L38.16,142.18c-0.194,0-0.194,0-0.388,0l-7.361-11.43l11.235-4.648L38.16,142.18z M14.916,137.143
	l14.721-6.198l7.555,11.622l-0.194,0.193L14.916,137.143z M13.56,136.756l9.879-15.109l5.617,8.717L13.56,136.756z M41.646,124.939
	l-11.622,4.843l-6.005-9.104l6.586-10.072L41.646,124.939z M29.637,110.412l-6.198,9.491l-4.649-7.36L29.637,110.412z M1.55,115.836
	l16.465-3.1l-0.194,0.193l5.037,7.941l-10.46,16.078L1.55,115.836z M12.979,137.725l23.826,6.197v0.194l-11.623,6.392
	L12.979,137.725z M26.15,151.09l11.235-6.199c0.193,0.194,0.387,0.194,0.775,0.194c0.193,0,0.193,0,0.193,0l6.974,13.753
	L26.15,151.09z M39.322,144.697c0.193-0.193,0.193-0.193,0.193-0.387l30.218-2.713l-23.631,16.659L39.322,144.697z M69.54,158.45
	l-22.857,0.581l23.826-16.658c0.193,0.193,0.193,0.193,0.387,0.193L69.54,158.45z M70.509,158.062l1.355-15.496
	c0.388,0,0.582-0.193,0.775-0.581l18.014,7.942L70.509,158.062z M91.815,149.346l-18.595-8.135l33.123-6.199L91.815,149.346z
	 M73.026,140.242l22.857-22.664c0.193,0.194,0.388,0.194,0.775,0.194h0.193l10.072,16.077L73.026,140.242z M107.507,133.075
	l-9.879-15.69c0.193-0.193,0.387-0.581,0.387-0.969l16.853-4.455v0.193L107.507,133.075z"/>
</svg>
